<mxfile host="app.diagrams.net" modified="2024-03-23T18:51:59.920Z" agent="Mozilla/5.0 (Windows NT 10.0; Win64; x64) AppleWebKit/537.36 (KHTML, like Gecko) Chrome/122.0.0.0 Safari/537.36 Edg/122.0.0.0" version="24.0.7" etag="E91DhjVbUr74A_r_dQbx" type="github">
  <diagram name="Page-1" id="Uu3tPtmgaI5sihdkJMdt">
    <mxGraphModel>
      <root>
        <mxCell id="0" />
        <mxCell id="1" parent="0" />
      </root>
    </mxGraphModel>
  </diagram>
</mxfile>
